<svg width="290" height="290" viewBox="0 0 290 290" fill="none" xmlns="http://www.w3.org/2000/svg">
<path d="M0 72C0 32.2355 32.2355 0 72 0H218C257.764 0 290 32.2355 290 72V218C290 257.764 257.764 290 218 290H72C32.2355 290 0 257.764 0 218V72Z" fill="#5E6E8D"/>
<path d="M123.5 166L3.5 239.5C3.5 239.5 18 289 71 289.5C124 290 161.507 289.5 219.5 289.5C274.5 289.5 287.5 236.5 287.5 236.5L225 201L173 171C167.5 168 166 166 166 164.5C166 149.268 166.5 126 166.5 126H124L123.5 166Z" fill="#94ACD1"/>
<path d="M166 164.5V129.5C166 127.1 164 126.167 163 126H130C126.8 126 125.381 128.333 125.071 129.5V164.5C125.071 165.667 123.752 168.223 119.104 170.5C114 173 81.9745 191.667 66.3934 201C65.5647 201.333 63.6087 201.5 62.4153 199.5C61.2219 197.5 57.6084 191.333 55.9508 188.5C55.4535 187.333 55.2547 184.6 58.4372 183C61.6197 181.4 83.3005 169 93.7432 163C94.5719 162.167 96.0306 160.1 95.235 158.5C94.4393 156.9 92.9144 156.167 92.2514 156H48.9891C48.326 156 47 155.6 47 154V139.389C47 138.593 47.3978 137 48.9891 137H91.3705C92.6587 137 95.235 136.3 95.235 133.5C95.235 130.7 92.2514 129 90.7596 128.5L56.4481 108.5C55.9508 108.167 55.2547 107 56.4481 105C57.6415 103 61.918 95.5 63.9071 92C64.2386 91.6667 65.3989 91.3 67.388 92.5C69.377 93.7 106.341 115.333 124.574 126L90.7596 67.4999C90.2623 66.8333 89.8645 65.1999 92.2514 63.9999C94.6383 62.7999 101.534 58.4999 104.683 56.4999C105.18 56.1666 106.573 56.1999 108.164 58.9999C109.755 61.7999 122.75 84.1666 129.049 95C131.204 95.6667 135.514 95.9 135.514 91.5V49.3848C135.514 48.9232 136.011 48 138 48H153C155 48 155.5 48.9232 155.5 49.3848V91.5C155.5 95.9 159.833 95.6667 162 95C168.333 84.1666 181.4 61.7999 183 58.9999C184.6 56.1999 186 56.1666 186.5 56.4999C189.667 58.4999 196.6 62.7999 199 63.9999C201.4 65.1999 201 66.8333 200.5 67.4999L166.5 126C184.833 115.333 222 93.7 224 92.5C226 91.3 227.167 91.6667 227.5 92C229.5 95.5 233.8 103 235 105C236.2 107 235.5 108.167 235 108.5L200.5 128.5C199 129 196 130.7 196 133.5C196 136.3 198.59 137 199.886 137H242.5C244.1 137 244.5 138.593 244.5 139.389V154C244.5 155.6 243.167 156 242.5 156H199C198.333 156.167 196.8 156.9 196 158.5C195.2 160.1 196.667 162.167 197.5 163C208 169 229.8 181.4 233 183C236.2 184.6 236 187.333 235.5 188.5C233.833 191.333 230.2 197.5 229 199.5C227.8 201.5 225.833 201.333 225 201C209.333 191.667 176.5 173 172 170.5C167.454 167.975 166 165.667 166 164.5Z" fill="#D9D9D9"/>
</svg>
