<svg xmlns="http://www.w3.org/2000/svg" width="900" height="560" viewBox="0 0 900 560">
  <rect width="100%" height="100%" fill="#f9fcfa"/>
  <rect x="78" y="42" width="792" height="456" fill="#f5faf7" stroke="#d5e4da"/>
  <line x1="78" y1="498.00" x2="870" y2="498.00" stroke="#dce8df" stroke-width="1"/><text x="68" y="502.00" text-anchor="end" font-size="11" fill="#5b6a62">0k</text><line x1="78" y1="386.89" x2="870" y2="386.89" stroke="#dce8df" stroke-width="1"/><text x="68" y="390.89" text-anchor="end" font-size="11" fill="#5b6a62">20k</text><line x1="78" y1="275.78" x2="870" y2="275.78" stroke="#dce8df" stroke-width="1"/><text x="68" y="279.78" text-anchor="end" font-size="11" fill="#5b6a62">40k</text><line x1="78" y1="164.67" x2="870" y2="164.67" stroke="#dce8df" stroke-width="1"/><text x="68" y="168.67" text-anchor="end" font-size="11" fill="#5b6a62">60k</text><line x1="78" y1="53.56" x2="870" y2="53.56" stroke="#dce8df" stroke-width="1"/><text x="68" y="57.56" text-anchor="end" font-size="11" fill="#5b6a62">80k</text><line x1="154.65" y1="42" x2="154.65" y2="498" stroke="#e7efe9" stroke-width="1"/><text x="154.65" y="518" text-anchor="middle" font-size="11" fill="#5b6a62">3.5%</text><line x1="282.39" y1="42" x2="282.39" y2="498" stroke="#e7efe9" stroke-width="1"/><text x="282.39" y="518" text-anchor="middle" font-size="11" fill="#5b6a62">4.0%</text><line x1="410.13" y1="42" x2="410.13" y2="498" stroke="#e7efe9" stroke-width="1"/><text x="410.13" y="518" text-anchor="middle" font-size="11" fill="#5b6a62">4.5%</text><line x1="537.87" y1="42" x2="537.87" y2="498" stroke="#e7efe9" stroke-width="1"/><text x="537.87" y="518" text-anchor="middle" font-size="11" fill="#5b6a62">5.0%</text><line x1="665.61" y1="42" x2="665.61" y2="498" stroke="#e7efe9" stroke-width="1"/><text x="665.61" y="518" text-anchor="middle" font-size="11" fill="#5b6a62">5.5%</text><line x1="793.35" y1="42" x2="793.35" y2="498" stroke="#e7efe9" stroke-width="1"/><text x="793.35" y="518" text-anchor="middle" font-size="11" fill="#5b6a62">6.0%</text>
  <line x1="78.00" y1="381.60" x2="870.00" y2="236.66" stroke="#4f7f68" stroke-width="2.2" stroke-dasharray="7 6"/>
  <circle cx="537.87" cy="75.78" r="5.5" fill="#6c9f84" stroke="#f6faf7" stroke-width="2"/><circle cx="486.77" cy="186.89" r="5.5" fill="#6c9f84" stroke="#f6faf7" stroke-width="2"/><circle cx="154.65" cy="264.67" r="5.5" fill="#6c9f84" stroke="#f6faf7" stroke-width="2"/><circle cx="588.97" cy="298.00" r="5.5" fill="#6c9f84" stroke="#f6faf7" stroke-width="2"/><circle cx="665.61" cy="236.89" r="5.5" fill="#6c9f84" stroke="#f6faf7" stroke-width="2"/><circle cx="563.42" cy="225.78" r="5.5" fill="#6c9f84" stroke="#f6faf7" stroke-width="2"/><circle cx="307.94" cy="483.56" r="5.5" fill="#6c9f84" stroke="#f6faf7" stroke-width="2"/><circle cx="793.35" cy="442.44" r="5.5" fill="#6c9f84" stroke="#f6faf7" stroke-width="2"/><circle cx="359.03" cy="425.78" r="5.5" fill="#6c9f84" stroke="#f6faf7" stroke-width="2"/><circle cx="180.19" cy="470.22" r="5.5" fill="#6c9f84" stroke="#f6faf7" stroke-width="2"/>
  <text x="450.0" y="24" text-anchor="middle" fill="#2f4639" font-size="16" font-family="sans-serif">GDP per Capita vs Education Spend</text>
  <text x="450.0" y="544" text-anchor="middle" fill="#4b6054" font-size="12" font-family="sans-serif">Education Spend (% of GDP)</text>
  <text x="24" y="280.0" transform="rotate(-90,24,280.0)" text-anchor="middle" fill="#4b6054" font-size="12" font-family="sans-serif">GDP per Capita (USD)</text>
  <text x="862" y="60" text-anchor="end" fill="#4f7f68" font-size="11" font-family="sans-serif">trendline</text>
</svg>
