<svg xmlns="http://www.w3.org/2000/svg" width="900" height="560" viewBox="0 0 900 560">
  <rect width="100%" height="100%" fill="#f9fcfa"/>
  <rect x="70" y="40" width="794" height="460" fill="#f5faf7" stroke="#d6e4db"/>
  <line x1="70" y1="500.00" x2="864" y2="500.00" stroke="#dde9e0" stroke-width="1"/><text x="60" y="504.00" text-anchor="end" font-size="11" fill="#5b6a62">0</text><line x1="70" y1="378.18" x2="864" y2="378.18" stroke="#dde9e0" stroke-width="1"/><text x="60" y="382.18" text-anchor="end" font-size="11" fill="#5b6a62">20</text><line x1="70" y1="256.37" x2="864" y2="256.37" stroke="#dde9e0" stroke-width="1"/><text x="60" y="260.37" text-anchor="end" font-size="11" fill="#5b6a62">40</text><line x1="70" y1="134.55" x2="864" y2="134.55" stroke="#dde9e0" stroke-width="1"/><text x="60" y="138.55" text-anchor="end" font-size="11" fill="#5b6a62">60</text><line x1="70" y1="12.73" x2="864" y2="12.73" stroke="#dde9e0" stroke-width="1"/><text x="60" y="16.73" text-anchor="end" font-size="11" fill="#5b6a62">80</text><line x1="70.00" y1="40" x2="70.00" y2="500" stroke="#e8f0ea" stroke-width="1"/><text x="70.00" y="520" text-anchor="middle" font-size="11" fill="#5b6a62">0</text><line x1="238.21" y1="40" x2="238.21" y2="500" stroke="#e8f0ea" stroke-width="1"/><text x="238.21" y="520" text-anchor="middle" font-size="11" fill="#5b6a62">40</text><line x1="406.43" y1="40" x2="406.43" y2="500" stroke="#e8f0ea" stroke-width="1"/><text x="406.43" y="520" text-anchor="middle" font-size="11" fill="#5b6a62">80</text><line x1="574.64" y1="40" x2="574.64" y2="500" stroke="#e8f0ea" stroke-width="1"/><text x="574.64" y="520" text-anchor="middle" font-size="11" fill="#5b6a62">120</text><line x1="742.86" y1="40" x2="742.86" y2="500" stroke="#e8f0ea" stroke-width="1"/><text x="742.86" y="520" text-anchor="middle" font-size="11" fill="#5b6a62">160</text>
  <path d="M70.00,500.00 L73.47,498.18 L76.94,496.39 L80.42,494.63 L83.89,492.89 L87.36,491.18 L90.83,489.49 L94.30,487.83 L97.78,486.19 L101.25,484.59 L104.72,483.00 L108.19,481.45 L111.66,479.92 L115.14,478.42 L118.61,476.94 L122.08,475.49 L125.55,474.06 L129.02,472.66 L132.49,471.29 L135.97,469.94 L139.44,468.62 L142.91,467.33 L146.38,466.06 L149.85,464.82 L153.33,463.60 L156.80,462.41 L160.27,461.25 L163.74,460.11 L167.21,459.00 L170.69,457.92 L174.16,456.86 L177.63,455.83 L181.10,454.82 L184.57,453.84 L188.05,452.88 L191.52,451.96 L194.99,451.05 L198.46,450.18 L201.93,449.33 L205.41,448.50 L208.88,447.71 L212.35,446.94 L215.82,446.19 L219.29,445.47 L222.76,444.78 L226.24,444.11 L229.71,443.47 L233.18,442.86 L236.65,442.27 L240.12,441.71 L243.60,441.17 L247.07,440.66 L250.54,440.18 L254.01,439.72 L257.48,439.29 L260.96,438.88 L264.43,438.50 L267.90,438.15 L271.37,437.82 L274.84,437.52 L278.32,437.25 L281.79,437.00 L285.26,436.78 L288.73,436.58 L292.20,436.41 L295.68,436.27 L299.15,436.15 L302.62,436.06 L306.09,435.99 L309.56,435.95 L313.03,435.94 L316.51,435.95 L319.98,435.99 L323.45,436.06 L326.92,436.15 L330.39,436.27 L333.87,436.41 L337.34,436.58 L340.81,436.78 L344.28,437.00 L347.75,437.25 L351.23,437.52 L354.70,437.82 L358.17,438.15 L361.64,438.50 L365.11,438.88 L368.59,439.29 L372.06,439.72 L375.53,440.18 L379.00,440.66 L382.47,441.17 L385.95,441.71 L389.42,442.27 L392.89,442.86 L396.36,443.47 L399.83,444.11 L403.31,444.78 L406.78,445.47 L410.25,446.19 L413.72,446.94 L417.19,447.71 L420.66,448.50 L424.14,449.33 L427.61,450.18 L431.08,451.05 L434.55,451.96 L438.02,452.88 L441.50,453.84 L444.97,454.82 L448.44,455.83 L451.91,456.86 L455.38,457.92 L458.86,459.00 L462.33,460.11 L465.80,461.25 L469.27,462.41 L472.74,463.60 L476.22,464.82 L479.69,466.06 L483.16,467.33 L486.63,468.62 L490.10,469.94 L493.58,471.29 L497.05,472.66 L500.52,474.06 L503.99,475.49 L507.46,476.94 L510.93,478.42 L514.41,479.92 L517.88,481.45 L521.35,483.00 L524.82,484.59 L528.29,486.19 L531.77,487.83 L535.24,489.49 L538.71,491.18 L542.18,492.89 L545.65,494.63 L549.13,496.39 L552.60,498.18 L556.07,500.00" fill="none" stroke="#6c9f84" stroke-width="2.3"/><path d="M70.00,500.00 L75.08,494.89 L80.15,489.85 L85.23,484.89 L90.30,480.00 L95.38,475.18 L100.45,470.44 L105.53,465.77 L110.60,461.17 L115.68,456.65 L120.76,452.20 L125.83,447.83 L130.91,443.52 L135.98,439.30 L141.06,435.14 L146.13,431.06 L151.21,427.05 L156.29,423.12 L161.36,419.26 L166.44,415.47 L171.51,411.76 L176.59,408.12 L181.66,404.55 L186.74,401.06 L191.81,397.64 L196.89,394.29 L201.97,391.02 L207.04,387.82 L212.12,384.70 L217.19,381.65 L222.27,378.67 L227.34,375.76 L232.42,372.93 L237.50,370.17 L242.57,367.49 L247.65,364.88 L252.72,362.34 L257.80,359.88 L262.87,357.49 L267.95,355.17 L273.02,352.93 L278.10,350.76 L283.18,348.66 L288.25,346.64 L293.33,344.69 L298.40,342.82 L303.48,341.02 L308.55,339.29 L313.63,337.63 L318.71,336.05 L323.78,334.55 L328.86,333.11 L333.93,331.75 L339.01,330.46 L344.08,329.25 L349.16,328.11 L354.23,327.05 L359.31,326.05 L364.39,325.13 L369.46,324.29 L374.54,323.52 L379.61,322.82 L384.69,322.19 L389.76,321.64 L394.84,321.16 L399.92,320.76 L404.99,320.43 L410.07,320.17 L415.14,319.99 L420.22,319.88 L425.29,319.84 L430.37,319.88 L435.44,319.99 L440.52,320.17 L445.60,320.43 L450.67,320.76 L455.75,321.16 L460.82,321.64 L465.90,322.19 L470.97,322.82 L476.05,323.52 L481.13,324.29 L486.20,325.13 L491.28,326.05 L496.35,327.05 L501.43,328.11 L506.50,329.25 L511.58,330.46 L516.65,331.75 L521.73,333.11 L526.81,334.55 L531.88,336.05 L536.96,337.63 L542.03,339.29 L547.11,341.02 L552.18,342.82 L557.26,344.69 L562.34,346.64 L567.41,348.66 L572.49,350.76 L577.56,352.93 L582.64,355.17 L587.71,357.49 L592.79,359.88 L597.86,362.34 L602.94,364.88 L608.02,367.49 L613.09,370.17 L618.17,372.93 L623.24,375.76 L628.32,378.67 L633.39,381.65 L638.47,384.70 L643.54,387.82 L648.62,391.02 L653.70,394.29 L658.77,397.64 L663.85,401.06 L668.92,404.55 L674.00,408.12 L679.07,411.76 L684.15,415.47 L689.23,419.26 L694.30,423.12 L699.38,427.05 L704.45,431.06 L709.53,435.14 L714.60,439.30 L719.68,443.52 L724.75,447.83 L729.83,452.20 L734.91,456.65 L739.98,461.17 L745.06,465.77 L750.13,470.44 L755.21,475.18 L760.28,480.00 L765.36,484.89 L770.44,489.85 L775.51,494.89 L780.59,500.00" fill="none" stroke="#5f8f76" stroke-width="2.3"/><path d="M70.00,500.00 L75.40,492.23 L80.80,484.58 L86.20,477.03 L91.61,469.60 L97.01,462.28 L102.41,455.07 L107.81,447.98 L113.21,440.99 L118.61,434.12 L124.01,427.36 L129.41,420.71 L134.82,414.17 L140.22,407.74 L145.62,401.43 L151.02,395.23 L156.42,389.14 L161.82,383.16 L167.22,377.29 L172.63,371.53 L178.03,365.89 L183.43,360.36 L188.83,354.94 L194.23,349.63 L199.63,344.43 L205.03,339.35 L210.44,334.37 L215.84,329.51 L221.24,324.76 L226.64,320.12 L232.04,315.60 L237.44,311.18 L242.84,306.88 L248.24,302.69 L253.65,298.61 L259.05,294.64 L264.45,290.79 L269.85,287.04 L275.25,283.41 L280.65,279.89 L286.05,276.48 L291.46,273.19 L296.86,270.00 L302.26,266.93 L307.66,263.97 L313.06,261.12 L318.46,258.38 L323.86,255.75 L329.27,253.24 L334.67,250.83 L340.07,248.54 L345.47,246.36 L350.87,244.30 L356.27,242.34 L361.67,240.50 L367.07,238.76 L372.48,237.14 L377.88,235.63 L383.28,234.24 L388.68,232.95 L394.08,231.78 L399.48,230.72 L404.88,229.77 L410.29,228.93 L415.69,228.20 L421.09,227.59 L426.49,227.08 L431.89,226.69 L437.29,226.41 L442.69,226.25 L448.10,226.19 L453.50,226.25 L458.90,226.41 L464.30,226.69 L469.70,227.08 L475.10,227.59 L480.50,228.20 L485.90,228.93 L491.31,229.77 L496.71,230.72 L502.11,231.78 L507.51,232.95 L512.91,234.24 L518.31,235.63 L523.71,237.14 L529.12,238.76 L534.52,240.50 L539.92,242.34 L545.32,244.30 L550.72,246.36 L556.12,248.54 L561.52,250.83 L566.93,253.24 L572.33,255.75 L577.73,258.38 L583.13,261.12 L588.53,263.97 L593.93,266.93 L599.33,270.00 L604.73,273.19 L610.14,276.48 L615.54,279.89 L620.94,283.41 L626.34,287.04 L631.74,290.79 L637.14,294.64 L642.54,298.61 L647.95,302.69 L653.35,306.88 L658.75,311.18 L664.15,315.60 L669.55,320.12 L674.95,324.76 L680.35,329.51 L685.76,334.37 L691.16,339.35 L696.56,344.43 L701.96,349.63 L707.36,354.94 L712.76,360.36 L718.16,365.89 L723.56,371.53 L728.97,377.29 L734.37,383.16 L739.77,389.14 L745.17,395.23 L750.57,401.43 L755.97,407.74 L761.37,414.17 L766.78,420.71 L772.18,427.36 L777.58,434.12 L782.98,440.99 L788.38,447.98 L793.78,455.07 L799.18,462.28 L804.59,469.60 L809.99,477.03 L815.39,484.58 L820.79,492.23 L826.19,500.00" fill="none" stroke="#4f7f68" stroke-width="2.3"/><path d="M70.00,500.00 L74.68,488.35 L79.36,476.87 L84.03,465.55 L88.71,454.40 L93.39,443.42 L98.07,432.61 L102.74,421.96 L107.42,411.49 L112.10,401.18 L116.78,391.03 L121.45,381.06 L126.13,371.25 L130.81,361.61 L135.49,352.14 L140.17,342.84 L144.84,333.70 L149.52,324.73 L154.20,315.93 L158.88,307.30 L163.55,298.83 L168.23,290.54 L172.91,282.41 L177.59,274.44 L182.27,266.65 L186.94,259.02 L191.62,251.56 L196.30,244.27 L200.98,237.14 L205.65,230.19 L210.33,223.40 L215.01,216.77 L219.69,210.32 L224.36,204.03 L229.04,197.92 L233.72,191.96 L238.40,186.18 L243.08,180.56 L247.75,175.12 L252.43,169.84 L257.11,164.72 L261.79,159.78 L266.46,155.00 L271.14,150.39 L275.82,145.95 L280.50,141.67 L285.17,137.57 L289.85,133.63 L294.53,129.85 L299.21,126.25 L303.89,122.81 L308.56,119.54 L313.24,116.44 L317.92,113.51 L322.60,110.74 L327.27,108.15 L331.95,105.71 L336.63,103.45 L341.31,101.36 L345.99,99.43 L350.66,97.67 L355.34,96.08 L360.02,94.65 L364.70,93.39 L369.37,92.30 L374.05,91.38 L378.73,90.63 L383.41,90.04 L388.08,89.62 L392.76,89.37 L397.44,89.29 L402.12,89.37 L406.80,89.62 L411.47,90.04 L416.15,90.63 L420.83,91.38 L425.51,92.30 L430.18,93.39 L434.86,94.65 L439.54,96.08 L444.22,97.67 L448.89,99.43 L453.57,101.36 L458.25,103.45 L462.93,105.71 L467.61,108.15 L472.28,110.74 L476.96,113.51 L481.64,116.44 L486.32,119.54 L490.99,122.81 L495.67,126.25 L500.35,129.85 L505.03,133.63 L509.71,137.57 L514.38,141.67 L519.06,145.95 L523.74,150.39 L528.42,155.00 L533.09,159.78 L537.77,164.72 L542.45,169.84 L547.13,175.12 L551.80,180.56 L556.48,186.18 L561.16,191.96 L565.84,197.92 L570.52,204.03 L575.19,210.32 L579.87,216.77 L584.55,223.40 L589.23,230.19 L593.90,237.14 L598.58,244.27 L603.26,251.56 L607.94,259.02 L612.61,266.65 L617.29,274.44 L621.97,282.41 L626.65,290.54 L631.33,298.83 L636.00,307.30 L640.68,315.93 L645.36,324.73 L650.04,333.70 L654.71,342.84 L659.39,352.14 L664.07,361.61 L668.75,371.25 L673.43,381.06 L678.10,391.03 L682.78,401.18 L687.46,411.49 L692.14,421.96 L696.81,432.61 L701.49,443.42 L706.17,454.40 L710.85,465.55 L715.52,476.87 L720.20,488.35 L724.88,500.00" fill="none" stroke="#7fae95" stroke-width="2.3"/>
  <text x="319.03" y="429.94" font-size="10" fill="#6c9f84">20°</text><text x="431.29" y="313.84" font-size="10" fill="#5f8f76">35°</text><text x="454.10" y="220.19" font-size="10" fill="#4f7f68">45°</text><text x="403.44" y="83.29" font-size="10" fill="#7fae95">60°</text>
  <circle cx="448.10" cy="226.19" r="4.2" fill="#4f7f68" stroke="#f7fbf8" stroke-width="2"/><text x="456.10" y="218.19" font-size="10" fill="#3f6652">max range at 45°</text>
  <text x="450.0" y="24" text-anchor="middle" fill="#2f4639" font-size="16" font-family="sans-serif">Projectile Motion by Launch Angle</text>
  <text x="450.0" y="546" text-anchor="middle" fill="#4b6054" font-size="12" font-family="sans-serif">Horizontal Distance (m)</text>
  <text x="24" y="280.0" transform="rotate(-90,24,280.0)" text-anchor="middle" fill="#4b6054" font-size="12" font-family="sans-serif">Vertical Height (m)</text>
</svg>
