<svg xmlns="http://www.w3.org/2000/svg" width="900" height="560" viewBox="0 0 900 560">
  <rect width="100%" height="100%" fill="#f9fcfa"/>
  <rect x="70" y="40" width="794" height="460" fill="#f5faf7" stroke="#d6e4db"/>
  <line x1="70" y1="489.55" x2="864" y2="489.55" stroke="#dde9e0" stroke-width="1"/><text x="60" y="493.55" text-anchor="end" font-size="11" fill="#5b6a62">1.0</text><line x1="70" y1="405.91" x2="864" y2="405.91" stroke="#dde9e0" stroke-width="1"/><text x="60" y="409.91" text-anchor="end" font-size="11" fill="#5b6a62">1.8</text><line x1="70" y1="322.27" x2="864" y2="322.27" stroke="#dde9e0" stroke-width="1"/><text x="60" y="326.27" text-anchor="end" font-size="11" fill="#5b6a62">2.6</text><line x1="70" y1="238.64" x2="864" y2="238.64" stroke="#dde9e0" stroke-width="1"/><text x="60" y="242.64" text-anchor="end" font-size="11" fill="#5b6a62">3.4</text><line x1="70" y1="155.00" x2="864" y2="155.00" stroke="#dde9e0" stroke-width="1"/><text x="60" y="159.00" text-anchor="end" font-size="11" fill="#5b6a62">4.2</text><line x1="70" y1="71.36" x2="864" y2="71.36" stroke="#dde9e0" stroke-width="1"/><text x="60" y="75.36" text-anchor="end" font-size="11" fill="#5b6a62">5.0</text><line x1="70.00" y1="40" x2="70.00" y2="500" stroke="#e8f0ea" stroke-width="1"/><text x="70.00" y="520" text-anchor="middle" font-size="11" fill="#5b6a62">1</text><line x1="179.52" y1="40" x2="179.52" y2="500" stroke="#e8f0ea" stroke-width="1"/><text x="179.52" y="520" text-anchor="middle" font-size="11" fill="#5b6a62">5</text><line x1="316.41" y1="40" x2="316.41" y2="500" stroke="#e8f0ea" stroke-width="1"/><text x="316.41" y="520" text-anchor="middle" font-size="11" fill="#5b6a62">10</text><line x1="453.31" y1="40" x2="453.31" y2="500" stroke="#e8f0ea" stroke-width="1"/><text x="453.31" y="520" text-anchor="middle" font-size="11" fill="#5b6a62">15</text><line x1="590.21" y1="40" x2="590.21" y2="500" stroke="#e8f0ea" stroke-width="1"/><text x="590.21" y="520" text-anchor="middle" font-size="11" fill="#5b6a62">20</text><line x1="727.10" y1="40" x2="727.10" y2="500" stroke="#e8f0ea" stroke-width="1"/><text x="727.10" y="520" text-anchor="middle" font-size="11" fill="#5b6a62">25</text><line x1="864.00" y1="40" x2="864.00" y2="500" stroke="#e8f0ea" stroke-width="1"/><text x="864.00" y="520" text-anchor="middle" font-size="11" fill="#5b6a62">30</text>
  <path d="M70.00,81.82 L97.38,155.00 L124.76,207.27 L152.14,249.09 L179.52,285.68 L206.90,317.05 L234.28,343.18 L261.66,364.09 L289.03,381.86 L316.41,396.50 L343.79,409.05 L371.17,419.50 L398.55,428.91 L425.93,437.27 L453.31,444.59 L480.69,450.86 L508.07,456.09 L535.45,460.27 L562.83,464.45 L590.21,468.64 L617.59,471.77 L644.97,474.91 L672.34,478.05 L699.72,480.14 L727.10,482.23 L754.48,484.32 L781.86,486.41 L809.24,488.50 L836.62,489.55 L864.00,490.59" fill="none" stroke="#4f7f68" stroke-width="2.4"/>
  <path d="M70.00,60.91 L97.38,139.32 L124.76,186.36 L152.14,228.18 L179.52,263.73 L206.90,293.00 L234.28,316.00 L261.66,333.77 L289.03,349.45 L316.41,362.00 L343.79,372.45 L371.17,380.82 L398.55,388.14 L425.93,394.41 L453.31,399.64 L480.69,403.82 L508.07,406.95 L535.45,410.09 L562.83,412.18 L590.21,414.27 L617.59,415.32 L644.97,416.36 L672.34,417.41 L699.72,417.41 L727.10,418.45 L754.48,418.45 L781.86,418.45 L809.24,418.45 L836.62,417.41 L864.00,416.36" fill="none" stroke="#7fae95" stroke-width="2.4" stroke-dasharray="7 5"/>
  <circle cx="864.00" cy="490.59" r="4" fill="#4f7f68" stroke="#f7fbf8" stroke-width="2"/>
  <circle cx="864.00" cy="416.36" r="4" fill="#7fae95" stroke="#f7fbf8" stroke-width="2"/>
  <text x="450.0" y="24" text-anchor="middle" fill="#2f4639" font-size="16" font-family="sans-serif">Transformer Learning Loss</text>
  <text x="450.0" y="546" text-anchor="middle" fill="#4b6054" font-size="12" font-family="sans-serif">Epoch</text>
  <text x="24" y="280.0" transform="rotate(-90,24,280.0)" text-anchor="middle" fill="#4b6054" font-size="12" font-family="sans-serif">Cross-Entropy Loss</text>
  <rect x="710" y="52" width="10" height="2.5" fill="#4f7f68"/>
  <text x="726" y="56" fill="#3f6652" font-size="11" font-family="sans-serif">train</text>
  <rect x="710" y="70" width="10" height="2.5" fill="#7fae95"/>
  <text x="726" y="74" fill="#5b7f6d" font-size="11" font-family="sans-serif">validation</text>
</svg>
