<svg xmlns="http://www.w3.org/2000/svg" width="900" height="560" viewBox="0 0 900 560">
  <rect width="100%" height="100%" fill="#f9fcfa"/>
  <rect x="70" y="40" width="794" height="460" fill="#f5faf7" stroke="#d6e4db"/>
  <line x1="70" y1="500.00" x2="864" y2="500.00" stroke="#dde9e0" stroke-width="1"/><text x="60" y="504.00" text-anchor="end" font-size="11" fill="#5b6a62">0%</text><line x1="70" y1="408.00" x2="864" y2="408.00" stroke="#dde9e0" stroke-width="1"/><text x="60" y="412.00" text-anchor="end" font-size="11" fill="#5b6a62">15%</text><line x1="70" y1="316.00" x2="864" y2="316.00" stroke="#dde9e0" stroke-width="1"/><text x="60" y="320.00" text-anchor="end" font-size="11" fill="#5b6a62">30%</text><line x1="70" y1="224.00" x2="864" y2="224.00" stroke="#dde9e0" stroke-width="1"/><text x="60" y="228.00" text-anchor="end" font-size="11" fill="#5b6a62">45%</text><line x1="70" y1="132.00" x2="864" y2="132.00" stroke="#dde9e0" stroke-width="1"/><text x="60" y="136.00" text-anchor="end" font-size="11" fill="#5b6a62">60%</text><line x1="70" y1="40.00" x2="864" y2="40.00" stroke="#dde9e0" stroke-width="1"/><text x="60" y="44.00" text-anchor="end" font-size="11" fill="#5b6a62">75%</text><line x1="70.00" y1="40" x2="70.00" y2="500" stroke="#e8f0ea" stroke-width="1"/><text x="70.00" y="520" text-anchor="middle" font-size="11" fill="#5b6a62">1</text><line x1="214.36" y1="40" x2="214.36" y2="500" stroke="#e8f0ea" stroke-width="1"/><text x="214.36" y="520" text-anchor="middle" font-size="11" fill="#5b6a62">3</text><line x1="358.73" y1="40" x2="358.73" y2="500" stroke="#e8f0ea" stroke-width="1"/><text x="358.73" y="520" text-anchor="middle" font-size="11" fill="#5b6a62">5</text><line x1="503.09" y1="40" x2="503.09" y2="500" stroke="#e8f0ea" stroke-width="1"/><text x="503.09" y="520" text-anchor="middle" font-size="11" fill="#5b6a62">7</text><line x1="647.45" y1="40" x2="647.45" y2="500" stroke="#e8f0ea" stroke-width="1"/><text x="647.45" y="520" text-anchor="middle" font-size="11" fill="#5b6a62">9</text><line x1="791.82" y1="40" x2="791.82" y2="500" stroke="#e8f0ea" stroke-width="1"/><text x="791.82" y="520" text-anchor="middle" font-size="11" fill="#5b6a62">11</text><line x1="864.00" y1="40" x2="864.00" y2="500" stroke="#e8f0ea" stroke-width="1"/><text x="864.00" y="520" text-anchor="middle" font-size="11" fill="#5b6a62">12</text>
  <path d="M70.00,82.93 L142.18,107.47 L214.36,125.87 L286.55,144.27 L358.73,168.80 L430.91,193.33 L503.09,211.73 L575.27,236.27 L647.45,254.67 L719.64,279.20 L791.82,297.60 L864.00,316.00" fill="none" stroke="#4f7f68" stroke-width="2.4"/>
  <path d="M70.00,352.80 L142.18,346.67 L214.36,340.53 L286.55,334.40 L358.73,322.13 L430.91,316.00 L503.09,309.87 L575.27,309.87 L647.45,303.73 L719.64,303.73 L791.82,303.73 L864.00,309.87" fill="none" stroke="#7fae95" stroke-width="2.4" stroke-dasharray="7 5"/>
  <path d="M70.00,450.93 L142.18,432.53 L214.36,420.27 L286.55,408.00 L358.73,395.73 L430.91,377.33 L503.09,365.07 L575.27,340.53 L647.45,328.27 L719.64,303.73 L791.82,285.33 L864.00,260.80" fill="none" stroke="#a8c9b6" stroke-width="2.4"/>
  <circle cx="864.00" cy="316.00" r="4" fill="#4f7f68" stroke="#f7fbf8" stroke-width="2"/>
  <circle cx="864.00" cy="309.87" r="4" fill="#7fae95" stroke="#f7fbf8" stroke-width="2"/>
  <circle cx="864.00" cy="260.80" r="4" fill="#a8c9b6" stroke="#f7fbf8" stroke-width="2"/>
  <text x="450.0" y="24" text-anchor="middle" fill="#2f4639" font-size="16" font-family="sans-serif">Transformer Attention Focus by Layer</text>
  <text x="450.0" y="546" text-anchor="middle" fill="#4b6054" font-size="12" font-family="sans-serif">Layer Depth</text>
  <text x="24" y="280.0" transform="rotate(-90,24,280.0)" text-anchor="middle" fill="#4b6054" font-size="12" font-family="sans-serif">Attention Share</text>
  <rect x="680" y="52" width="10" height="2.5" fill="#4f7f68"/>
  <text x="696" y="56" fill="#3f6652" font-size="11" font-family="sans-serif">local tokens</text>
  <rect x="680" y="70" width="10" height="2.5" fill="#7fae95"/>
  <text x="696" y="74" fill="#5b7f6d" font-size="11" font-family="sans-serif">mid-range</text>
  <rect x="680" y="88" width="10" height="2.5" fill="#a8c9b6"/>
  <text x="696" y="92" fill="#6c8f7d" font-size="11" font-family="sans-serif">long-range</text>
</svg>
